<svg width="220" height="73" viewBox="0 0 220 73" fill="none" xmlns="http://www.w3.org/2000/svg">
<path d="M20.352 56.256C17.2373 56.256 14.4427 55.488 11.968 53.952C9.49333 52.3733 7.53067 50.2613 6.08 47.616C4.672 44.928 3.968 41.8987 3.968 38.528C3.968 35.1573 4.736 32.128 6.272 29.44C7.85067 26.752 9.96267 24.64 12.608 23.104C15.296 21.5253 18.304 20.736 21.632 20.736C24.96 20.736 27.9467 21.5253 30.592 23.104C33.2373 24.64 35.328 26.752 36.864 29.44C38.4427 32.128 39.232 35.1573 39.232 38.528V52.8C39.232 53.7387 38.912 54.528 38.272 55.168C37.6747 55.7653 36.9067 56.064 35.968 56.064C35.0293 56.064 34.24 55.7653 33.6 55.168C33.0027 54.528 32.704 53.7387 32.704 52.8V50.432C31.2107 52.224 29.3973 53.6533 27.264 54.72C25.1733 55.744 22.8693 56.256 20.352 56.256ZM21.632 50.496C23.808 50.496 25.7493 49.984 27.456 48.96C29.1627 47.8933 30.5067 46.464 31.488 44.672C32.4693 42.8373 32.96 40.7893 32.96 38.528C32.96 36.224 32.4693 34.176 31.488 32.384C30.5067 30.5493 29.1627 29.12 27.456 28.096C25.7493 27.0293 23.808 26.496 21.632 26.496C19.4987 26.496 17.5573 27.0293 15.808 28.096C14.1013 29.12 12.736 30.5493 11.712 32.384C10.7307 34.176 10.24 36.224 10.24 38.528C10.24 40.7893 10.7307 42.8373 11.712 44.672C12.736 46.464 14.1013 47.8933 15.808 48.96C17.5573 49.984 19.4987 50.496 21.632 50.496ZM66.5475 56.256C63.2195 56.256 60.2328 55.488 57.5875 53.952C54.9422 52.3733 52.8515 50.24 51.3155 47.552C49.7795 44.864 48.9902 41.8347 48.9475 38.464V9.28C48.9475 8.29867 49.2462 7.50933 49.8435 6.912C50.4835 6.31467 51.2728 6.016 52.2115 6.016C53.1928 6.016 53.9822 6.31467 54.5795 6.912C55.1768 7.50933 55.4755 8.29867 55.4755 9.28V26.56C56.9688 24.768 58.7608 23.36 60.8515 22.336C62.9848 21.2693 65.3102 20.736 67.8275 20.736C70.9422 20.736 73.7368 21.5253 76.2115 23.104C78.6862 24.64 80.6275 26.752 82.0355 29.44C83.4862 32.0853 84.2115 35.0933 84.2115 38.464C84.2115 41.8347 83.4222 44.864 81.8435 47.552C80.3075 50.24 78.2168 52.3733 75.5715 53.952C72.9262 55.488 69.9182 56.256 66.5475 56.256ZM66.5475 50.496C68.7235 50.496 70.6648 49.984 72.3715 48.96C74.0782 47.8933 75.4222 46.4427 76.4035 44.608C77.4275 42.7733 77.9395 40.7253 77.9395 38.464C77.9395 36.16 77.4275 34.112 76.4035 32.32C75.4222 30.528 74.0782 29.12 72.3715 28.096C70.6648 27.0293 68.7235 26.496 66.5475 26.496C64.4142 26.496 62.4728 27.0293 60.7235 28.096C59.0168 29.12 57.6728 30.528 56.6915 32.32C55.7102 34.112 55.2195 36.16 55.2195 38.464C55.2195 40.7253 55.7102 42.7733 56.6915 44.608C57.6728 46.4427 59.0168 47.8933 60.7235 48.96C62.4728 49.984 64.4142 50.496 66.5475 50.496Z" fill="#0C5DBF"/>
<path d="M167.863 56.32C164.919 56.32 162.273 55.7013 159.927 54.464C157.623 53.184 155.788 51.328 154.423 48.896C153.1 46.464 152.439 43.4773 152.439 39.936V24.192C152.439 23.2533 152.737 22.4853 153.335 21.888C153.975 21.248 154.764 20.928 155.703 20.928C156.641 20.928 157.409 21.248 158.007 21.888C158.647 22.4853 158.967 23.2533 158.967 24.192V39.936C158.967 43.5627 159.927 46.2293 161.847 47.936C163.809 49.6 166.241 50.432 169.143 50.432C170.977 50.432 172.599 50.0693 174.007 49.344C175.457 48.6187 176.609 47.6373 177.463 46.4C178.316 45.1627 178.743 43.776 178.743 42.24V24.192C178.743 23.2107 179.041 22.4213 179.639 21.824C180.279 21.2267 181.068 20.928 182.007 20.928C182.988 20.928 183.777 21.2267 184.375 21.824C184.972 22.4213 185.271 23.2107 185.271 24.192V52.736C185.271 53.6747 184.972 54.464 184.375 55.104C183.777 55.7013 182.988 56 182.007 56C181.068 56 180.279 55.7013 179.639 55.104C179.041 54.464 178.743 53.6747 178.743 52.736V52.032C177.42 53.3547 175.82 54.4 173.943 55.168C172.065 55.936 170.039 56.32 167.863 56.32ZM209.504 56C207.37 56 205.45 55.4667 203.744 54.4C202.037 53.2907 200.693 51.7973 199.712 49.92C198.73 48.0427 198.24 45.9307 198.24 43.584V27.776H195.296C194.4 27.776 193.674 27.52 193.12 27.008C192.565 26.496 192.288 25.856 192.288 25.088C192.288 24.2347 192.565 23.552 193.12 23.04C193.674 22.528 194.4 22.272 195.296 22.272H198.24V13.056C198.24 12.1173 198.538 11.3493 199.136 10.752C199.733 10.1547 200.501 9.856 201.44 9.856C202.378 9.856 203.146 10.1547 203.744 10.752C204.341 11.3493 204.64 12.1173 204.64 13.056V22.272H210.08C210.976 22.272 211.701 22.528 212.256 23.04C212.81 23.552 213.088 24.2347 213.088 25.088C213.088 25.856 212.81 26.496 212.256 27.008C211.701 27.52 210.976 27.776 210.08 27.776H204.64V43.584C204.64 45.2907 205.109 46.72 206.048 47.872C206.986 49.024 208.138 49.6 209.504 49.6H211.68C212.448 49.6 213.088 49.8987 213.6 50.496C214.154 51.0933 214.432 51.8613 214.432 52.8C214.432 53.7387 214.069 54.5067 213.344 55.104C212.661 55.7013 211.765 56 210.656 56H209.504Z" fill="#0C5DBF"/>
<ellipse cx="119.237" cy="30.7047" rx="28.146" ry="26.6107" fill="#0C5DBF"/>
</svg>
