<svg width="304" height="561" viewBox="0 0 304 561" fill="none" xmlns="http://www.w3.org/2000/svg">
<g id="handPinch">
<path id="Vector" d="M129.563 44.5C121.73 31 114.563 3.6 148.563 2C161.977 21.3333 190.3 66.7 193.5 75.5C195.503 81.0075 201.266 100.155 207.212 119.911M129.563 44.5C129.563 44.5 129.563 28.5 142.063 28.5M129.563 44.5C129.563 53 137.063 64.7307 142.063 75.5C145.256 82.3768 142.332 89.6457 142.796 106.5M2.25904 81.9107C0.759043 71.9107 5.05904 54.4107 34.259 64.4107C63.459 74.4107 66.0924 125.577 63.759 149.911C76.0897 165.735 82.5753 179.701 86.5 191.566M2.25904 81.9107C7.75904 77.0773 19.659 70.3107 23.259 81.9107C26.859 93.5107 15.0924 98.744 8.75903 99.9107M2.25904 81.9107L8.75903 99.9107M8.75903 99.9107C9.75301 111.244 12.8928 137.111 17.5 149.911C23.259 165.911 12.259 241.911 23.259 275.911C34.259 309.911 75.741 397.411 86.5 398.411C97.747 455.107 114.593 579.2 92 622M222 167.911C219.254 159.922 213.142 139.613 207.212 119.911M142.796 106.5C143.059 116.04 144.287 124.411 148.563 136.911C154.965 155.623 156 158.911 156 158.911C144.651 174.812 142.291 173.088 137.089 191.566M142.796 106.5C125.879 108.333 96.9928 109.711 92 136.911C85.759 170.911 86.5 157.411 86.5 191.566M86.5 191.566C92.124 208.567 92.4893 221.254 97.259 228.911C100.816 234.62 97.259 237.411 114.259 237.411C119.259 206.411 132.084 211.215 134.259 202.411C135.313 198.146 136.239 194.586 137.089 191.566M207.212 119.911C214.528 129.192 230.01 152.405 240.206 167.911M276.5 228.911C276.5 216.911 273.5 202.411 267 191.566C250 191.566 250 182.911 250 182.911C250 182.911 245.938 176.629 240.206 167.911M114.259 158.911C112.732 166.181 115.16 182.89 137.089 191.566M240.206 167.911C245.5 163.911 268.284 167.911 276.5 177.411C289.84 192.835 306 259.911 293.5 275.911L267 398.411C268.667 443.274 278 540.1 302 568.5" stroke="#0C5DBF" stroke-width="3"/>
</g>
</svg>
