<svg width="285" height="552" viewBox="0 0 285 552" fill="none" xmlns="http://www.w3.org/2000/svg">
<path d="M71.4059 613.115C97.9059 574.115 71.4059 397.615 71.4059 397.615C71.4059 397.615 18.406 328.615 5.90595 273.615C-6.59408 218.615 14.9059 144.615 14.9059 144.615C14.9059 144.615 14.9059 106.415 14.9059 93.6146M14.9059 93.6146C14.9059 86.6939 11.2517 79.3639 9.87058 72.1146M14.9059 93.6146C21.1044 92.448 35.0824 86.5146 41.406 72.1146C30.206 52.7219 15.7157 64.0343 9.87058 72.1146M101.406 93.6146C101.073 102.948 115.906 126.615 127.906 144.615C133.377 152.821 129.118 170.829 123.966 183.615M101.406 93.6146C74.906 115.115 80.4059 108.365 65.3872 172.615M101.406 93.6146C87.2879 78.1666 77.5787 65.093 71.1642 54.1146M196.906 160.115L175.906 108.365M175.906 108.365L143.906 72.1146C122.739 47.2813 88.6059 -10.9855 71.4059 4.61454C61.7309 7.96364 52.4989 22.169 71.1642 54.1146M175.906 108.365C194.237 130.515 204.728 144.917 214.906 152.771M278.406 554.615C262.406 500.115 250.239 483.281 248.406 432.615C244.239 394.948 262.406 319.615 278.406 273.615C282.754 261.115 287.406 266.615 271.406 213.615C271.406 174.015 247.739 161.448 235.906 160.115C227.738 160.115 221.385 157.77 214.906 152.771M65.3872 172.615C61.7594 159.763 58.9059 148.44 58.9059 144.615C58.9059 134.115 64.4059 104.115 58.9059 72.1146C54.5059 46.5146 27.4059 41.6146 14.9059 54.1146C9.16444 59.8561 8.69729 65.9562 9.87058 72.1146M65.3872 172.615C71.7176 195.039 80.4059 222.115 80.4059 222.115C80.4059 222.115 98.406 233.948 101.406 222.115C101.573 207.448 115.906 197.615 115.906 197.615C117.785 196.524 121.022 190.922 123.966 183.615M92.906 149.615C96.6128 164.615 108.014 192.415 123.966 183.615M214.906 152.771C214.739 158.385 218.706 172.415 235.906 183.615C253.106 194.815 251.406 208.281 248.406 213.615M92.906 32.6146C88.5782 31.4479 68.1708 32.9147 71.1642 54.1146" stroke="#0C5DBF" stroke-width="3"/>
</svg>
