<svg width="230" height="66" viewBox="0 0 230 66" fill="none" xmlns="http://www.w3.org/2000/svg">
<circle cx="128.5" cy="33.5" r="19.5" fill="#E3C147"/>
<circle cx="210.5" cy="33.5" r="19.5" fill="#E3C147"/>
<circle cx="33" cy="33" r="33" fill="#E3C147"/>
<path fill-rule="evenodd" clip-rule="evenodd" d="M51.2633 31.7653L25.952 6.76327C25.59 6.40568 25.1733 6.22656 24.7027 6.22656C24.232 6.22656 23.8153 6.40568 23.4533 6.76327L20.738 9.44615C20.3753 9.80373 20.1947 10.2147 20.1947 10.6802C20.1947 11.1458 20.3753 11.5568 20.738 11.9143L42.084 33L20.738 54.0864C20.3753 54.444 20.1947 54.8555 20.1947 55.3198C20.1947 55.7854 20.3753 56.197 20.738 56.5546L23.4533 59.2361C23.8153 59.5944 24.232 59.7722 24.7027 59.7722C25.1733 59.7722 25.59 59.5937 25.952 59.2361L51.2627 34.2341C51.6247 33.8765 51.8053 33.465 51.8053 33C51.8053 32.5351 51.6253 32.1235 51.2633 31.7653V31.7653Z" fill="white"/>
</svg>
