<svg width="299" height="73" viewBox="0 0 299 73" fill="none" xmlns="http://www.w3.org/2000/svg">
<path d="M9.024 70.976C8.08533 70.976 7.296 70.656 6.656 70.016C6.05867 69.4187 5.76 68.6507 5.76 67.712V38.528C5.80267 35.1573 6.592 32.128 8.128 29.44C9.664 26.752 11.7547 24.64 14.4 23.104C17.0453 21.5253 20.032 20.736 23.36 20.736C26.7307 20.736 29.7387 21.5253 32.384 23.104C35.0293 24.64 37.12 26.752 38.656 29.44C40.2347 32.128 41.024 35.1573 41.024 38.528C41.024 41.8987 40.2987 44.928 38.848 47.616C37.44 50.2613 35.4987 52.3733 33.024 53.952C30.5493 55.488 27.7547 56.256 24.64 56.256C22.1227 56.256 19.7973 55.744 17.664 54.72C15.5733 53.6533 13.7813 52.224 12.288 50.432V67.712C12.288 68.6507 11.9893 69.4187 11.392 70.016C10.7947 70.656 10.0053 70.976 9.024 70.976ZM23.36 50.496C25.536 50.496 27.4773 49.984 29.184 48.96C30.8907 47.8933 32.2347 46.464 33.216 44.672C34.24 42.8373 34.752 40.7893 34.752 38.528C34.752 36.224 34.24 34.176 33.216 32.384C32.2347 30.5493 30.8907 29.12 29.184 28.096C27.4773 27.0293 25.536 26.496 23.36 26.496C21.2267 26.496 19.2853 27.0293 17.536 28.096C15.8293 29.12 14.4853 30.5493 13.504 32.384C12.5227 34.176 12.032 36.224 12.032 38.528C12.032 40.7893 12.5227 42.8373 13.504 44.672C14.4853 46.464 15.8293 47.8933 17.536 48.96C19.2853 49.984 21.2267 50.496 23.36 50.496ZM53.96 56C51.8267 56 50.76 54.9333 50.76 52.8V24.192C50.76 22.0587 51.8267 20.992 53.96 20.992C56.0933 20.992 57.16 22.0587 57.16 24.192V25.408C58.44 23.9147 59.9973 22.7413 61.832 21.888C63.7093 21.0347 65.736 20.608 67.912 20.608C70.472 20.608 72.3707 21.0347 73.608 21.888C74.888 22.6987 75.3787 23.68 75.08 24.832C74.8667 25.728 74.44 26.3253 73.8 26.624C73.16 26.88 72.4133 26.9227 71.56 26.752C68.8293 26.1973 66.376 26.1547 64.2 26.624C62.024 27.0933 60.296 27.968 59.016 29.248C57.7787 30.528 57.16 32.1493 57.16 34.112V52.8C57.16 54.9333 56.0933 56 53.96 56Z" fill="#0C5DBF"/>
<path d="M144.183 70.976C143.244 70.976 142.476 70.656 141.879 70.016C141.281 69.4187 140.983 68.6507 140.983 67.712C140.983 66.7307 141.281 65.9413 141.879 65.344C142.476 64.7467 143.244 64.448 144.183 64.448C146.7 64.448 148.769 63.6373 150.391 62.016C152.012 60.3947 152.823 58.3467 152.823 55.872V24.256C152.823 23.2747 153.121 22.4853 153.719 21.888C154.359 21.2907 155.148 20.992 156.087 20.992C157.068 20.992 157.857 21.2907 158.455 21.888C159.052 22.4853 159.351 23.2747 159.351 24.256V55.872C159.351 58.816 158.689 61.4187 157.367 63.68C156.087 65.9413 154.316 67.712 152.055 68.992C149.793 70.3147 147.169 70.976 144.183 70.976ZM156.087 15.296C154.935 15.296 153.932 14.8907 153.079 14.08C152.268 13.2267 151.863 12.224 151.863 11.072C151.863 9.92 152.268 8.93866 153.079 8.128C153.932 7.27467 154.935 6.848 156.087 6.848C157.239 6.848 158.22 7.27467 159.031 8.128C159.884 8.93866 160.311 9.92 160.311 11.072C160.311 12.224 159.884 13.2267 159.031 14.08C158.22 14.8907 157.239 15.296 156.087 15.296ZM185.403 56.256C181.862 56.256 178.704 55.5093 175.931 54.016C173.2 52.48 171.046 50.3893 169.467 47.744C167.931 45.056 167.163 41.984 167.163 38.528C167.163 35.0293 167.888 31.9573 169.339 29.312C170.832 26.624 172.88 24.5333 175.483 23.04C178.086 21.504 181.072 20.736 184.443 20.736C187.771 20.736 190.63 21.4827 193.019 22.976C195.408 24.4267 197.222 26.4533 198.459 29.056C199.739 31.616 200.379 34.5813 200.379 37.952C200.379 38.7627 200.102 39.4453 199.547 40C198.992 40.512 198.288 40.768 197.435 40.768H173.115C173.584 43.712 174.928 46.1227 177.147 48C179.408 49.8347 182.16 50.752 185.403 50.752C186.726 50.752 188.07 50.5173 189.435 50.048C190.843 49.536 191.974 48.96 192.827 48.32C193.467 47.8507 194.15 47.616 194.875 47.616C195.643 47.5733 196.304 47.7867 196.859 48.256C197.584 48.896 197.968 49.6 198.011 50.368C198.054 51.136 197.712 51.7973 196.987 52.352C195.536 53.504 193.723 54.4427 191.547 55.168C189.414 55.8933 187.366 56.256 185.403 56.256ZM184.443 26.24C181.286 26.24 178.747 27.1147 176.827 28.864C174.907 30.6133 173.691 32.8747 173.179 35.648H194.491C194.107 32.9173 193.062 30.6773 191.355 28.928C189.648 27.136 187.344 26.24 184.443 26.24ZM223.327 56.256C219.914 56.256 216.863 55.488 214.175 53.952C211.53 52.3733 209.439 50.2613 207.903 47.616C206.41 44.928 205.663 41.8987 205.663 38.528C205.663 35.072 206.41 32 207.903 29.312C209.396 26.624 211.444 24.5333 214.047 23.04C216.65 21.504 219.636 20.736 223.007 20.736C228.042 20.736 232.223 22.656 235.551 26.496C236.148 27.1787 236.362 27.8827 236.191 28.608C236.02 29.3333 235.551 29.9733 234.783 30.528C234.186 30.9547 233.524 31.104 232.799 30.976C232.074 30.8053 231.412 30.4213 230.815 29.824C228.724 27.6053 226.122 26.496 223.007 26.496C219.722 26.496 217.055 27.6053 215.007 29.824C212.959 32 211.935 34.9013 211.935 38.528C211.935 40.832 212.404 42.88 213.343 44.672C214.324 46.464 215.668 47.8933 217.375 48.96C219.082 49.984 221.066 50.496 223.327 50.496C226.228 50.496 228.575 49.7493 230.367 48.256C231.05 47.7013 231.754 47.4027 232.479 47.36C233.204 47.2747 233.844 47.4667 234.399 47.936C235.124 48.5333 235.53 49.216 235.615 49.984C235.7 50.7093 235.444 51.3707 234.847 51.968C231.775 54.8267 227.935 56.256 223.327 56.256ZM258.629 56C256.495 56 254.575 55.4667 252.869 54.4C251.162 53.2907 249.818 51.7973 248.837 49.92C247.855 48.0427 247.365 45.9307 247.365 43.584V27.776H244.421C243.525 27.776 242.799 27.52 242.245 27.008C241.69 26.496 241.413 25.856 241.413 25.088C241.413 24.2347 241.69 23.552 242.245 23.04C242.799 22.528 243.525 22.272 244.421 22.272H247.365V13.056C247.365 12.1173 247.663 11.3493 248.261 10.752C248.858 10.1547 249.626 9.856 250.565 9.856C251.503 9.856 252.271 10.1547 252.869 10.752C253.466 11.3493 253.765 12.1173 253.765 13.056V22.272H259.205C260.101 22.272 260.826 22.528 261.381 23.04C261.935 23.552 262.213 24.2347 262.213 25.088C262.213 25.856 261.935 26.496 261.381 27.008C260.826 27.52 260.101 27.776 259.205 27.776H253.765V43.584C253.765 45.2907 254.234 46.72 255.173 47.872C256.111 49.024 257.263 49.6 258.629 49.6H260.805C261.573 49.6 262.213 49.8987 262.725 50.496C263.279 51.0933 263.557 51.8613 263.557 52.8C263.557 53.7387 263.194 54.5067 262.469 55.104C261.786 55.7013 260.89 56 259.781 56H258.629ZM284.316 56.256C281.329 56.256 278.556 55.808 275.996 54.912C273.479 53.9733 271.516 52.8 270.108 51.392C269.468 50.7093 269.191 49.9413 269.276 49.088C269.404 48.192 269.831 47.4667 270.556 46.912C271.409 46.2293 272.241 45.952 273.052 46.08C273.905 46.1653 274.631 46.528 275.228 47.168C275.953 47.9787 277.105 48.7467 278.684 49.472C280.305 50.1547 282.097 50.496 284.06 50.496C286.535 50.496 288.412 50.0907 289.692 49.28C291.015 48.4693 291.697 47.424 291.74 46.144C291.783 44.864 291.164 43.7547 289.884 42.816C288.647 41.8773 286.364 41.1093 283.036 40.512C278.727 39.6587 275.591 38.3787 273.628 36.672C271.708 34.9653 270.748 32.8747 270.748 30.4C270.748 28.224 271.388 26.432 272.668 25.024C273.948 23.5733 275.591 22.5067 277.596 21.824C279.601 21.0987 281.692 20.736 283.868 20.736C286.684 20.736 289.18 21.184 291.356 22.08C293.532 22.976 295.26 24.2133 296.54 25.792C297.137 26.4747 297.415 27.2 297.372 27.968C297.329 28.6933 296.967 29.312 296.284 29.824C295.601 30.2933 294.791 30.4427 293.852 30.272C292.913 30.1013 292.124 29.7173 291.484 29.12C290.417 28.096 289.265 27.392 288.028 27.008C286.791 26.624 285.361 26.432 283.74 26.432C281.863 26.432 280.263 26.752 278.94 27.392C277.66 28.032 277.02 28.9707 277.02 30.208C277.02 30.976 277.212 31.68 277.596 32.32C278.023 32.9173 278.833 33.472 280.028 33.984C281.223 34.4533 282.972 34.9227 285.276 35.392C290.097 36.3307 293.425 37.6747 295.26 39.424C297.137 41.1307 298.076 43.2427 298.076 45.76C298.076 47.7227 297.543 49.4933 296.476 51.072C295.452 52.6507 293.916 53.9093 291.868 54.848C289.863 55.7867 287.345 56.256 284.316 56.256Z" fill="#0C5DBF"/>
<ellipse cx="114.119" cy="35.8222" rx="28.146" ry="26.6107" fill="#0C5DBF"/>
</svg>
