<svg width="95" height="94" viewBox="0 0 95 94" fill="none" xmlns="http://www.w3.org/2000/svg">
<g filter="url(#filter0_d)">
<rect width="86" height="86" fill="#FF56D0"/>
<circle cx="43.5" cy="43.5" r="30.5" fill="white"/>
<path d="M31.908 55.36C30.372 55.36 28.992 55.096 27.768 54.568C26.544 54.04 25.5 53.332 24.636 52.444C23.796 51.532 23.148 50.488 22.692 49.312C22.236 48.136 22.008 46.9 22.008 45.604C22.008 44.284 22.236 43.036 22.692 41.86C23.148 40.684 23.796 39.652 24.636 38.764C25.5 37.852 26.544 37.132 27.768 36.604C28.992 36.076 30.372 35.812 31.908 35.812C33.444 35.812 34.812 36.076 36.012 36.604C37.236 37.132 38.268 37.852 39.108 38.764C39.972 39.652 40.632 40.684 41.088 41.86C41.544 43.036 41.772 44.284 41.772 45.604C41.772 46.9 41.544 48.136 41.088 49.312C40.632 50.488 39.984 51.532 39.144 52.444C38.304 53.332 37.272 54.04 36.048 54.568C34.824 55.096 33.444 55.36 31.908 55.36ZM26.976 45.604C26.976 46.444 27.096 47.212 27.336 47.908C27.6 48.58 27.948 49.168 28.38 49.672C28.836 50.176 29.364 50.572 29.964 50.86C30.564 51.124 31.212 51.256 31.908 51.256C32.604 51.256 33.252 51.124 33.852 50.86C34.452 50.572 34.968 50.176 35.4 49.672C35.856 49.168 36.204 48.568 36.444 47.872C36.708 47.176 36.84 46.408 36.84 45.568C36.84 44.752 36.708 43.996 36.444 43.3C36.204 42.604 35.856 42.004 35.4 41.5C34.968 40.996 34.452 40.612 33.852 40.348C33.252 40.06 32.604 39.916 31.908 39.916C31.212 39.916 30.564 40.06 29.964 40.348C29.364 40.636 28.836 41.032 28.38 41.536C27.948 42.04 27.6 42.64 27.336 43.336C27.096 44.032 26.976 44.788 26.976 45.604ZM54.064 59.572V54.208H43.552V49.924L55.612 34.444H58.888V49.888H62.056V54.208H58.888V59.572H54.064ZM48.376 49.888H54.604V41.752L48.376 49.888Z" fill="#FF56D0"/>
</g>
<defs>
<filter id="filter0_d" x="0" y="0" width="95" height="94" filterUnits="userSpaceOnUse" color-interpolation-filters="sRGB">
<feFlood flood-opacity="0" result="BackgroundImageFix"/>
<feColorMatrix in="SourceAlpha" type="matrix" values="0 0 0 0 0 0 0 0 0 0 0 0 0 0 0 0 0 0 127 0"/>
<feOffset dx="5" dy="4"/>
<feGaussianBlur stdDeviation="2"/>
<feColorMatrix type="matrix" values="0 0 0 0 0.890196 0 0 0 0 0.755608 0 0 0 0 0.278431 0 0 0 0.3 0"/>
<feBlend mode="normal" in2="BackgroundImageFix" result="effect1_dropShadow"/>
<feBlend mode="normal" in="SourceGraphic" in2="effect1_dropShadow" result="shape"/>
</filter>
</defs>
</svg>
