<svg width="95" height="94" viewBox="0 0 95 94" fill="none" xmlns="http://www.w3.org/2000/svg">
<g filter="url(#filter0_d)">
<rect width="86" height="86" fill="#0C5DBF"/>
<circle cx="43.5" cy="43.5" r="30.5" fill="white"/>
<path d="M33.908 56.36C32.372 56.36 30.992 56.096 29.768 55.568C28.544 55.04 27.5 54.332 26.636 53.444C25.796 52.532 25.148 51.488 24.692 50.312C24.236 49.136 24.008 47.9 24.008 46.604C24.008 45.284 24.236 44.036 24.692 42.86C25.148 41.684 25.796 40.652 26.636 39.764C27.5 38.852 28.544 38.132 29.768 37.604C30.992 37.076 32.372 36.812 33.908 36.812C35.444 36.812 36.812 37.076 38.012 37.604C39.236 38.132 40.268 38.852 41.108 39.764C41.972 40.652 42.632 41.684 43.088 42.86C43.544 44.036 43.772 45.284 43.772 46.604C43.772 47.9 43.544 49.136 43.088 50.312C42.632 51.488 41.984 52.532 41.144 53.444C40.304 54.332 39.272 55.04 38.048 55.568C36.824 56.096 35.444 56.36 33.908 56.36ZM28.976 46.604C28.976 47.444 29.096 48.212 29.336 48.908C29.6 49.58 29.948 50.168 30.38 50.672C30.836 51.176 31.364 51.572 31.964 51.86C32.564 52.124 33.212 52.256 33.908 52.256C34.604 52.256 35.252 52.124 35.852 51.86C36.452 51.572 36.968 51.176 37.4 50.672C37.856 50.168 38.204 49.568 38.444 48.872C38.708 48.176 38.84 47.408 38.84 46.568C38.84 45.752 38.708 44.996 38.444 44.3C38.204 43.604 37.856 43.004 37.4 42.5C36.968 41.996 36.452 41.612 35.852 41.348C35.252 41.06 34.604 40.916 33.908 40.916C33.212 40.916 32.564 41.06 31.964 41.348C31.364 41.636 30.836 42.032 30.38 42.536C29.948 43.04 29.6 43.64 29.336 44.336C29.096 45.032 28.976 45.788 28.976 46.604ZM55.272 44.516C56.472 44.516 57.588 44.72 58.62 45.128C59.652 45.512 60.54 46.064 61.284 46.784C62.028 47.504 62.604 48.368 63.012 49.376C63.444 50.384 63.66 51.5 63.66 52.724C63.66 54.02 63.42 55.196 62.94 56.252C62.484 57.308 61.836 58.208 60.996 58.952C60.156 59.72 59.16 60.308 58.008 60.716C56.856 61.148 55.608 61.364 54.264 61.364C52.392 61.364 50.712 60.968 49.224 60.176C47.76 59.384 46.644 58.304 45.876 56.936L48.648 54.056C49.32 54.992 50.16 55.736 51.168 56.288C52.176 56.84 53.22 57.116 54.3 57.116C55.596 57.116 56.652 56.732 57.468 55.964C58.308 55.172 58.728 54.128 58.728 52.832C58.728 51.584 58.332 50.576 57.54 49.808C56.772 49.04 55.788 48.656 54.588 48.656C53.796 48.656 53.052 48.836 52.356 49.196C51.684 49.556 51.144 50.048 50.736 50.672H46.524C46.524 50.6 46.572 50.336 46.668 49.88C46.764 49.4 46.884 48.8 47.028 48.08C47.172 47.336 47.328 46.52 47.496 45.632C47.664 44.72 47.844 43.796 48.036 42.86C48.468 40.652 48.948 38.18 49.476 35.444H62.076V39.836H52.968L51.924 45.56C52.212 45.248 52.632 44.996 53.184 44.804C53.76 44.612 54.456 44.516 55.272 44.516Z" fill="#0C5DBF"/>
</g>
<defs>
<filter id="filter0_d" x="0" y="0" width="95" height="94" filterUnits="userSpaceOnUse" color-interpolation-filters="sRGB">
<feFlood flood-opacity="0" result="BackgroundImageFix"/>
<feColorMatrix in="SourceAlpha" type="matrix" values="0 0 0 0 0 0 0 0 0 0 0 0 0 0 0 0 0 0 127 0"/>
<feOffset dx="5" dy="4"/>
<feGaussianBlur stdDeviation="2"/>
<feColorMatrix type="matrix" values="0 0 0 0 0.0666667 0 0 0 0 0.858824 0 0 0 0 0.792157 0 0 0 0.3 0"/>
<feBlend mode="normal" in2="BackgroundImageFix" result="effect1_dropShadow"/>
<feBlend mode="normal" in="SourceGraphic" in2="effect1_dropShadow" result="shape"/>
</filter>
</defs>
</svg>
