<svg width="95" height="94" viewBox="0 0 95 94" fill="none" xmlns="http://www.w3.org/2000/svg">
<g filter="url(#filter0_d)">
<rect width="86" height="86" fill="#0C5DBF"/>
<circle cx="43.5" cy="43.5" r="30.5" fill="white"/>
<path d="M32.908 55.36C31.372 55.36 29.992 55.096 28.768 54.568C27.544 54.04 26.5 53.332 25.636 52.444C24.796 51.532 24.148 50.488 23.692 49.312C23.236 48.136 23.008 46.9 23.008 45.604C23.008 44.284 23.236 43.036 23.692 41.86C24.148 40.684 24.796 39.652 25.636 38.764C26.5 37.852 27.544 37.132 28.768 36.604C29.992 36.076 31.372 35.812 32.908 35.812C34.444 35.812 35.812 36.076 37.012 36.604C38.236 37.132 39.268 37.852 40.108 38.764C40.972 39.652 41.632 40.684 42.088 41.86C42.544 43.036 42.772 44.284 42.772 45.604C42.772 46.9 42.544 48.136 42.088 49.312C41.632 50.488 40.984 51.532 40.144 52.444C39.304 53.332 38.272 54.04 37.048 54.568C35.824 55.096 34.444 55.36 32.908 55.36ZM27.976 45.604C27.976 46.444 28.096 47.212 28.336 47.908C28.6 48.58 28.948 49.168 29.38 49.672C29.836 50.176 30.364 50.572 30.964 50.86C31.564 51.124 32.212 51.256 32.908 51.256C33.604 51.256 34.252 51.124 34.852 50.86C35.452 50.572 35.968 50.176 36.4 49.672C36.856 49.168 37.204 48.568 37.444 47.872C37.708 47.176 37.84 46.408 37.84 45.568C37.84 44.752 37.708 43.996 37.444 43.3C37.204 42.604 36.856 42.004 36.4 41.5C35.968 40.996 35.452 40.612 34.852 40.348C34.252 40.06 33.604 39.916 32.908 39.916C32.212 39.916 31.564 40.06 30.964 40.348C30.364 40.636 29.836 41.032 29.38 41.536C28.948 42.04 28.6 42.64 28.336 43.336C28.096 44.032 27.976 44.788 27.976 45.604ZM60.752 50.644V55H46.136V50.644H51.248V39.736C51.032 40.024 50.684 40.324 50.204 40.636C49.748 40.924 49.244 41.2 48.692 41.464C48.14 41.728 47.564 41.944 46.964 42.112C46.388 42.28 45.872 42.364 45.416 42.364V37.864C45.848 37.864 46.376 37.732 47 37.468C47.624 37.18 48.236 36.844 48.836 36.46C49.436 36.076 49.952 35.704 50.384 35.344C50.84 34.96 51.128 34.66 51.248 34.444H56.18V50.644H60.752Z" fill="#0C5DBF"/>
</g>
<defs>
<filter id="filter0_d" x="0" y="0" width="95" height="94" filterUnits="userSpaceOnUse" color-interpolation-filters="sRGB">
<feFlood flood-opacity="0" result="BackgroundImageFix"/>
<feColorMatrix in="SourceAlpha" type="matrix" values="0 0 0 0 0 0 0 0 0 0 0 0 0 0 0 0 0 0 127 0"/>
<feOffset dx="5" dy="4"/>
<feGaussianBlur stdDeviation="2"/>
<feColorMatrix type="matrix" values="0 0 0 0 0.0679514 0 0 0 0 0.858333 0 0 0 0 0.792468 0 0 0 0.3 0"/>
<feBlend mode="normal" in2="BackgroundImageFix" result="effect1_dropShadow"/>
<feBlend mode="normal" in="SourceGraphic" in2="effect1_dropShadow" result="shape"/>
</filter>
</defs>
</svg>
