<svg width="95" height="94" viewBox="0 0 95 94" fill="none" xmlns="http://www.w3.org/2000/svg">
<g filter="url(#filter0_d)">
<rect width="86" height="86" fill="#FF56D0"/>
<circle cx="43.5" cy="43.5" r="30.5" fill="white"/>
<path d="M31.908 56.36C30.372 56.36 28.992 56.096 27.768 55.568C26.544 55.04 25.5 54.332 24.636 53.444C23.796 52.532 23.148 51.488 22.692 50.312C22.236 49.136 22.008 47.9 22.008 46.604C22.008 45.284 22.236 44.036 22.692 42.86C23.148 41.684 23.796 40.652 24.636 39.764C25.5 38.852 26.544 38.132 27.768 37.604C28.992 37.076 30.372 36.812 31.908 36.812C33.444 36.812 34.812 37.076 36.012 37.604C37.236 38.132 38.268 38.852 39.108 39.764C39.972 40.652 40.632 41.684 41.088 42.86C41.544 44.036 41.772 45.284 41.772 46.604C41.772 47.9 41.544 49.136 41.088 50.312C40.632 51.488 39.984 52.532 39.144 53.444C38.304 54.332 37.272 55.04 36.048 55.568C34.824 56.096 33.444 56.36 31.908 56.36ZM26.976 46.604C26.976 47.444 27.096 48.212 27.336 48.908C27.6 49.58 27.948 50.168 28.38 50.672C28.836 51.176 29.364 51.572 29.964 51.86C30.564 52.124 31.212 52.256 31.908 52.256C32.604 52.256 33.252 52.124 33.852 51.86C34.452 51.572 34.968 51.176 35.4 50.672C35.856 50.168 36.204 49.568 36.444 48.872C36.708 48.176 36.84 47.408 36.84 46.568C36.84 45.752 36.708 44.996 36.444 44.3C36.204 43.604 35.856 43.004 35.4 42.5C34.968 41.996 34.452 41.612 33.852 41.348C33.252 41.06 32.604 40.916 31.908 40.916C31.212 40.916 30.564 41.06 29.964 41.348C29.364 41.636 28.836 42.032 28.38 42.536C27.948 43.04 27.6 43.64 27.336 44.336C27.096 45.032 26.976 45.788 26.976 46.604ZM44.2 56C44.2 54.92 44.284 53.948 44.452 53.084C44.62 52.196 44.908 51.38 45.316 50.636C45.748 49.892 46.324 49.196 47.044 48.548C47.788 47.9 48.724 47.264 49.852 46.64C50.836 46.112 51.7 45.656 52.444 45.272C53.212 44.864 53.848 44.492 54.352 44.156C54.856 43.82 55.24 43.484 55.504 43.148C55.768 42.788 55.9 42.38 55.9 41.924C55.9 41.204 55.612 40.592 55.036 40.088C54.46 39.56 53.632 39.296 52.552 39.296C51.976 39.296 51.448 39.38 50.968 39.548C50.488 39.692 50.032 39.896 49.6 40.16C49.192 40.424 48.808 40.724 48.448 41.06C48.112 41.372 47.8 41.708 47.512 42.068L44.416 38.504C44.728 38.168 45.172 37.808 45.748 37.424C46.324 37.016 46.996 36.644 47.764 36.308C48.556 35.948 49.42 35.66 50.356 35.444C51.316 35.204 52.336 35.084 53.416 35.084C54.64 35.084 55.732 35.24 56.692 35.552C57.652 35.84 58.456 36.26 59.104 36.812C59.776 37.34 60.28 37.988 60.616 38.756C60.976 39.5 61.156 40.316 61.156 41.204C61.156 42.044 61 42.788 60.688 43.436C60.376 44.084 59.98 44.66 59.5 45.164C59.02 45.668 58.492 46.112 57.916 46.496C57.364 46.856 56.824 47.18 56.296 47.468C55.864 47.708 55.372 47.984 54.82 48.296C54.268 48.608 53.716 48.956 53.164 49.34C52.636 49.7 52.144 50.084 51.688 50.492C51.232 50.876 50.884 51.26 50.644 51.644H61.552V56H44.2Z" fill="#FF56D0"/>
</g>
<defs>
<filter id="filter0_d" x="0" y="0" width="95" height="94" filterUnits="userSpaceOnUse" color-interpolation-filters="sRGB">
<feFlood flood-opacity="0" result="BackgroundImageFix"/>
<feColorMatrix in="SourceAlpha" type="matrix" values="0 0 0 0 0 0 0 0 0 0 0 0 0 0 0 0 0 0 127 0"/>
<feOffset dx="5" dy="4"/>
<feGaussianBlur stdDeviation="2"/>
<feColorMatrix type="matrix" values="0 0 0 0 0.890196 0 0 0 0 0.755608 0 0 0 0 0.278431 0 0 0 0.3 0"/>
<feBlend mode="normal" in2="BackgroundImageFix" result="effect1_dropShadow"/>
<feBlend mode="normal" in="SourceGraphic" in2="effect1_dropShadow" result="shape"/>
</filter>
</defs>
</svg>
