<svg width="95" height="94" viewBox="0 0 95 94" fill="none" xmlns="http://www.w3.org/2000/svg">
<g filter="url(#filter0_d)">
<rect width="86" height="86" fill="#11DBCA"/>
<circle cx="43.5" cy="43.5" r="30.5" fill="white"/>
<path d="M32.908 52.36C31.372 52.36 29.992 52.096 28.768 51.568C27.544 51.04 26.5 50.332 25.636 49.444C24.796 48.532 24.148 47.488 23.692 46.312C23.236 45.136 23.008 43.9 23.008 42.604C23.008 41.284 23.236 40.036 23.692 38.86C24.148 37.684 24.796 36.652 25.636 35.764C26.5 34.852 27.544 34.132 28.768 33.604C29.992 33.076 31.372 32.812 32.908 32.812C34.444 32.812 35.812 33.076 37.012 33.604C38.236 34.132 39.268 34.852 40.108 35.764C40.972 36.652 41.632 37.684 42.088 38.86C42.544 40.036 42.772 41.284 42.772 42.604C42.772 43.9 42.544 45.136 42.088 46.312C41.632 47.488 40.984 48.532 40.144 49.444C39.304 50.332 38.272 51.04 37.048 51.568C35.824 52.096 34.444 52.36 32.908 52.36ZM27.976 42.604C27.976 43.444 28.096 44.212 28.336 44.908C28.6 45.58 28.948 46.168 29.38 46.672C29.836 47.176 30.364 47.572 30.964 47.86C31.564 48.124 32.212 48.256 32.908 48.256C33.604 48.256 34.252 48.124 34.852 47.86C35.452 47.572 35.968 47.176 36.4 46.672C36.856 46.168 37.204 45.568 37.444 44.872C37.708 44.176 37.84 43.408 37.84 42.568C37.84 41.752 37.708 40.996 37.444 40.3C37.204 39.604 36.856 39.004 36.4 38.5C35.968 37.996 35.452 37.612 34.852 37.348C34.252 37.06 33.604 36.916 32.908 36.916C32.212 36.916 31.564 37.06 30.964 37.348C30.364 37.636 29.836 38.032 29.38 38.536C28.948 39.04 28.6 39.64 28.336 40.336C28.096 41.032 27.976 41.788 27.976 42.604ZM57.548 43.504C59.036 43.768 60.236 44.488 61.148 45.664C62.084 46.816 62.552 48.232 62.552 49.912C62.552 51.04 62.324 52.06 61.868 52.972C61.436 53.884 60.812 54.652 59.996 55.276C59.204 55.924 58.232 56.416 57.08 56.752C55.928 57.112 54.632 57.292 53.192 57.292C51.368 57.292 49.748 56.992 48.332 56.392C46.94 55.816 45.776 54.964 44.84 53.836L47.576 50.416C48.2 51.208 48.944 51.82 49.808 52.252C50.672 52.684 51.752 52.9 53.048 52.9C54.512 52.9 55.628 52.612 56.396 52.036C57.164 51.46 57.548 50.572 57.548 49.372C57.548 48.124 57.104 47.164 56.216 46.492C55.328 45.82 53.984 45.484 52.184 45.484H51.176V41.884H52.292C53.78 41.884 54.932 41.56 55.748 40.912C56.564 40.24 56.972 39.388 56.972 38.356C56.972 37.372 56.636 36.64 55.964 36.16C55.292 35.68 54.416 35.44 53.336 35.44C52.232 35.44 51.236 35.692 50.348 36.196C49.484 36.7 48.776 37.408 48.224 38.32L45.2 34.936C45.56 34.384 46.04 33.892 46.64 33.46C47.24 33.004 47.912 32.62 48.656 32.308C49.424 31.972 50.252 31.72 51.14 31.552C52.028 31.36 52.94 31.264 53.876 31.264C55.1 31.264 56.216 31.42 57.224 31.732C58.232 32.044 59.096 32.476 59.816 33.028C60.56 33.58 61.124 34.252 61.508 35.044C61.916 35.812 62.12 36.676 62.12 37.636C62.12 38.356 62.012 39.04 61.796 39.688C61.58 40.336 61.268 40.924 60.86 41.452C60.452 41.98 59.96 42.424 59.384 42.784C58.832 43.144 58.22 43.384 57.548 43.504Z" fill="#11DBCA"/>
</g>
<defs>
<filter id="filter0_d" x="0" y="0" width="95" height="94" filterUnits="userSpaceOnUse" color-interpolation-filters="sRGB">
<feFlood flood-opacity="0" result="BackgroundImageFix"/>
<feColorMatrix in="SourceAlpha" type="matrix" values="0 0 0 0 0 0 0 0 0 0 0 0 0 0 0 0 0 0 127 0"/>
<feOffset dx="5" dy="4"/>
<feGaussianBlur stdDeviation="2"/>
<feColorMatrix type="matrix" values="0 0 0 0 1 0 0 0 0 0.3375 0 0 0 0 0.8145 0 0 0 0.3 0"/>
<feBlend mode="normal" in2="BackgroundImageFix" result="effect1_dropShadow"/>
<feBlend mode="normal" in="SourceGraphic" in2="effect1_dropShadow" result="shape"/>
</filter>
</defs>
</svg>
